<mxfile host="app.diagrams.net" modified="2022-05-20T08:12:12.156Z" agent="5.0 (Windows NT 10.0; Win64; x64) AppleWebKit/537.36 (KHTML, like Gecko) Chrome/100.0.4896.60 Safari/537.36 Edg/100.0.1185.29" etag="Ztx84UYev1WksIuDfO_u" version="18.0.8" type="github">
  <diagram id="QGMa9Z18NvODa6OBbRA9" name="第 1 页">
    <mxGraphModel dx="1052" dy="578" grid="1" gridSize="10" guides="1" tooltips="1" connect="1" arrows="1" fold="1" page="1" pageScale="1" pageWidth="827" pageHeight="1169" math="0" shadow="0">
      <root>
        <mxCell id="0" />
        <mxCell id="1" parent="0" />
        <mxCell id="uIpgAM6Qf2mmL0ZP-p-L-3" value="&lt;h1&gt;&lt;b&gt;&lt;font face=&quot;Comic Sans MS&quot;&gt;ORDER&lt;/font&gt;&lt;/b&gt;&lt;/h1&gt;" style="text;html=1;strokeColor=none;fillColor=none;align=center;verticalAlign=middle;whiteSpace=wrap;rounded=0;sketch=0;" parent="1" vertex="1">
          <mxGeometry x="70" y="59" width="60" height="30" as="geometry" />
        </mxCell>
        <mxCell id="uIpgAM6Qf2mmL0ZP-p-L-4" value="" style="ellipse;html=1;shape=startState;fillColor=#000000;strokeColor=#080000;sketch=0;fontFamily=Comic Sans MS;" parent="1" vertex="1">
          <mxGeometry x="225" y="110" width="30" height="30" as="geometry" />
        </mxCell>
        <mxCell id="uIpgAM6Qf2mmL0ZP-p-L-5" value="" style="edgeStyle=orthogonalEdgeStyle;html=1;verticalAlign=bottom;endArrow=open;endSize=8;strokeColor=#030000;rounded=0;fontFamily=Comic Sans MS;entryX=0.576;entryY=-0.022;entryDx=0;entryDy=0;entryPerimeter=0;" parent="1" source="uIpgAM6Qf2mmL0ZP-p-L-4" target="uIpgAM6Qf2mmL0ZP-p-L-7" edge="1">
          <mxGeometry relative="1" as="geometry">
            <mxPoint x="245" y="170" as="targetPoint" />
            <Array as="points" />
          </mxGeometry>
        </mxCell>
        <mxCell id="uIpgAM6Qf2mmL0ZP-p-L-6" value="&lt;h3&gt;&lt;span style=&quot;font-weight: normal;&quot;&gt;&lt;font style=&quot;font-size: 17px;&quot;&gt;start&lt;/font&gt;&lt;/span&gt;&lt;/h3&gt;" style="text;html=1;strokeColor=none;fillColor=none;align=center;verticalAlign=middle;whiteSpace=wrap;rounded=0;sketch=1;fontFamily=Comic Sans MS;" parent="1" vertex="1">
          <mxGeometry x="176" y="105" width="60" height="30" as="geometry" />
        </mxCell>
        <mxCell id="uIpgAM6Qf2mmL0ZP-p-L-7" value="Checking" style="swimlane;fontStyle=0;childLayout=stackLayout;horizontal=1;startSize=26;fillColor=none;horizontalStack=0;resizeParent=1;resizeParentMax=0;resizeLast=0;collapsible=1;marginBottom=0;sketch=0;fontFamily=Comic Sans MS;fontSize=17;rounded=1;" parent="1" vertex="1">
          <mxGeometry x="160" y="250" width="140" height="52" as="geometry" />
        </mxCell>
        <mxCell id="uIpgAM6Qf2mmL0ZP-p-L-8" value="do:check item" style="text;strokeColor=none;fillColor=none;align=center;verticalAlign=top;spacingLeft=4;spacingRight=4;overflow=hidden;rotatable=0;points=[[0,0.5],[1,0.5]];portConstraint=eastwest;sketch=1;fontFamily=Comic Sans MS;fontSize=17;" parent="uIpgAM6Qf2mmL0ZP-p-L-7" vertex="1">
          <mxGeometry y="26" width="140" height="26" as="geometry" />
        </mxCell>
        <mxCell id="uIpgAM6Qf2mmL0ZP-p-L-12" value="" style="endArrow=classic;html=1;rounded=0;fontFamily=Comic Sans MS;fontSize=11;strokeColor=#030000;exitX=0;exitY=0.5;exitDx=0;exitDy=0;entryX=0;entryY=0.25;entryDx=0;entryDy=0;" parent="uIpgAM6Qf2mmL0ZP-p-L-7" source="uIpgAM6Qf2mmL0ZP-p-L-8" target="uIpgAM6Qf2mmL0ZP-p-L-7" edge="1">
          <mxGeometry width="50" height="50" relative="1" as="geometry">
            <mxPoint x="230" y="30" as="sourcePoint" />
            <mxPoint x="280" y="-20" as="targetPoint" />
            <Array as="points">
              <mxPoint x="-70" y="40" />
              <mxPoint x="-70" y="13" />
            </Array>
          </mxGeometry>
        </mxCell>
        <mxCell id="uIpgAM6Qf2mmL0ZP-p-L-11" value="&lt;font style=&quot;font-size: 11px;&quot;&gt;/get first item&lt;/font&gt;" style="text;html=1;strokeColor=none;fillColor=none;align=center;verticalAlign=middle;whiteSpace=wrap;rounded=0;shadow=1;sketch=0;fontFamily=Comic Sans MS;fontSize=17;" parent="1" vertex="1">
          <mxGeometry x="236" y="190" width="90" height="30" as="geometry" />
        </mxCell>
        <mxCell id="uIpgAM6Qf2mmL0ZP-p-L-13" value="get next item" style="text;html=1;strokeColor=none;fillColor=none;align=center;verticalAlign=middle;whiteSpace=wrap;rounded=0;shadow=1;sketch=0;fontFamily=Comic Sans MS;fontSize=11;" parent="1" vertex="1">
          <mxGeometry x="70" y="230" width="80" height="30" as="geometry" />
        </mxCell>
        <mxCell id="uIpgAM6Qf2mmL0ZP-p-L-14" value="&lt;font style=&quot;font-size: 13px;&quot;&gt;Waiting&lt;/font&gt;" style="rounded=1;whiteSpace=wrap;html=1;shadow=0;sketch=0;fontFamily=Comic Sans MS;fontSize=11;strokeColor=#080000;fillColor=none;align=left;" parent="1" vertex="1">
          <mxGeometry x="170" y="380" width="120" height="30" as="geometry" />
        </mxCell>
        <mxCell id="uIpgAM6Qf2mmL0ZP-p-L-15" value="" style="endArrow=classic;html=1;rounded=0;fontFamily=Comic Sans MS;fontSize=13;strokeColor=#030000;exitX=0.25;exitY=1;exitDx=0;exitDy=0;entryX=0;entryY=0.5;entryDx=0;entryDy=0;" parent="1" source="uIpgAM6Qf2mmL0ZP-p-L-14" target="uIpgAM6Qf2mmL0ZP-p-L-14" edge="1">
          <mxGeometry width="50" height="50" relative="1" as="geometry">
            <mxPoint x="390" y="270" as="sourcePoint" />
            <mxPoint x="440" y="220" as="targetPoint" />
            <Array as="points">
              <mxPoint x="200" y="430" />
              <mxPoint x="130" y="430" />
              <mxPoint x="130" y="395" />
            </Array>
          </mxGeometry>
        </mxCell>
        <mxCell id="uIpgAM6Qf2mmL0ZP-p-L-16" value="&lt;font style=&quot;font-size: 11px;&quot;&gt;item received&lt;/font&gt;" style="text;html=1;strokeColor=none;fillColor=none;align=center;verticalAlign=middle;whiteSpace=wrap;rounded=0;shadow=0;sketch=0;fontFamily=Comic Sans MS;fontSize=13;" parent="1" vertex="1">
          <mxGeometry x="70" y="400" width="80" height="30" as="geometry" />
        </mxCell>
        <mxCell id="uIpgAM6Qf2mmL0ZP-p-L-17" value="" style="endArrow=classic;html=1;rounded=0;fontFamily=Comic Sans MS;fontSize=11;strokeColor=#030000;exitX=0.553;exitY=1.053;exitDx=0;exitDy=0;exitPerimeter=0;" parent="1" edge="1">
          <mxGeometry width="50" height="50" relative="1" as="geometry">
            <mxPoint x="239.42000000000007" y="303.37800000000004" as="sourcePoint" />
            <mxPoint x="240" y="380" as="targetPoint" />
          </mxGeometry>
        </mxCell>
        <mxCell id="uIpgAM6Qf2mmL0ZP-p-L-18" value="Dispatching" style="swimlane;fontStyle=0;childLayout=stackLayout;horizontal=1;startSize=26;fillColor=none;horizontalStack=0;resizeParent=1;resizeParentMax=0;resizeLast=0;collapsible=1;marginBottom=0;rounded=1;shadow=0;sketch=0;fontFamily=Comic Sans MS;fontSize=17;strokeColor=#080000;" parent="1" vertex="1">
          <mxGeometry x="460" y="250" width="190" height="52" as="geometry" />
        </mxCell>
        <mxCell id="uIpgAM6Qf2mmL0ZP-p-L-19" value="do:initiate delivery" style="text;strokeColor=none;fillColor=none;align=left;verticalAlign=top;spacingLeft=4;spacingRight=4;overflow=hidden;rotatable=0;points=[[0,0.5],[1,0.5]];portConstraint=eastwest;rounded=1;shadow=0;sketch=0;fontFamily=Comic Sans MS;fontSize=17;" parent="uIpgAM6Qf2mmL0ZP-p-L-18" vertex="1">
          <mxGeometry y="26" width="190" height="26" as="geometry" />
        </mxCell>
        <mxCell id="uIpgAM6Qf2mmL0ZP-p-L-25" value="&lt;div style=&quot;text-align: left;&quot;&gt;&lt;span style=&quot;font-size: 11px; background-color: initial;&quot;&gt;All items checked&amp;amp;&amp;amp;&lt;/span&gt;&lt;/div&gt;&lt;font style=&quot;font-size: 11px;&quot;&gt;&lt;div style=&quot;text-align: left;&quot;&gt;&lt;span style=&quot;background-color: initial;&quot;&gt;all items available&lt;/span&gt;&lt;/div&gt;&lt;/font&gt;" style="text;html=1;strokeColor=none;fillColor=none;align=center;verticalAlign=middle;whiteSpace=wrap;rounded=0;shadow=0;sketch=0;fontFamily=Comic Sans MS;fontSize=17;" parent="1" vertex="1">
          <mxGeometry x="310" y="244" width="120" height="30" as="geometry" />
        </mxCell>
        <mxCell id="uIpgAM6Qf2mmL0ZP-p-L-28" value="" style="endArrow=classic;html=1;rounded=0;fontFamily=Comic Sans MS;fontSize=11;strokeColor=#030000;entryX=0;entryY=0.5;entryDx=0;entryDy=0;" parent="1" target="uIpgAM6Qf2mmL0ZP-p-L-18" edge="1">
          <mxGeometry width="50" height="50" relative="1" as="geometry">
            <mxPoint x="300" y="280" as="sourcePoint" />
            <mxPoint x="440" y="280" as="targetPoint" />
          </mxGeometry>
        </mxCell>
        <mxCell id="uIpgAM6Qf2mmL0ZP-p-L-29" value="" style="endArrow=classic;html=1;rounded=0;fontFamily=Comic Sans MS;fontSize=11;strokeColor=#030000;entryX=0;entryY=0.5;entryDx=0;entryDy=0;exitX=1;exitY=0;exitDx=0;exitDy=0;" parent="1" source="uIpgAM6Qf2mmL0ZP-p-L-14" target="uIpgAM6Qf2mmL0ZP-p-L-19" edge="1">
          <mxGeometry width="50" height="50" relative="1" as="geometry">
            <mxPoint x="390" y="330" as="sourcePoint" />
            <mxPoint x="440" y="280" as="targetPoint" />
          </mxGeometry>
        </mxCell>
        <mxCell id="uIpgAM6Qf2mmL0ZP-p-L-33" value="" style="endArrow=classic;html=1;rounded=0;fontFamily=Comic Sans MS;fontSize=11;strokeColor=#030000;exitX=0.642;exitY=1.085;exitDx=0;exitDy=0;exitPerimeter=0;entryX=0.5;entryY=0;entryDx=0;entryDy=0;" parent="1" source="uIpgAM6Qf2mmL0ZP-p-L-19" target="uIpgAM6Qf2mmL0ZP-p-L-34" edge="1">
          <mxGeometry width="50" height="50" relative="1" as="geometry">
            <mxPoint x="400" y="490" as="sourcePoint" />
            <mxPoint x="580" y="520" as="targetPoint" />
          </mxGeometry>
        </mxCell>
        <mxCell id="uIpgAM6Qf2mmL0ZP-p-L-34" value="&lt;font style=&quot;font-size: 18px;&quot;&gt;Delivered&lt;/font&gt;" style="rounded=1;whiteSpace=wrap;html=1;shadow=0;sketch=0;fontFamily=Comic Sans MS;fontSize=11;strokeColor=#080000;fillColor=none;" parent="1" vertex="1">
          <mxGeometry x="520" y="480" width="120" height="40" as="geometry" />
        </mxCell>
        <mxCell id="uIpgAM6Qf2mmL0ZP-p-L-35" value="Active" style="shape=umlFrame;whiteSpace=wrap;html=1;rounded=1;shadow=0;sketch=0;fontFamily=Comic Sans MS;fontSize=18;strokeColor=#080000;fillColor=none;swimlaneFillColor=none;width=70;height=40;" parent="1" vertex="1">
          <mxGeometry x="30" y="190" width="700" height="250" as="geometry" />
        </mxCell>
        <mxCell id="uIpgAM6Qf2mmL0ZP-p-L-36" value="&lt;font style=&quot;font-size: 11px;&quot;&gt;item received&lt;/font&gt;" style="text;html=1;strokeColor=none;fillColor=none;align=center;verticalAlign=middle;whiteSpace=wrap;rounded=0;shadow=0;sketch=0;fontFamily=Comic Sans MS;fontSize=18;" parent="1" vertex="1">
          <mxGeometry x="351" y="330" width="96" height="30" as="geometry" />
        </mxCell>
        <mxCell id="uIpgAM6Qf2mmL0ZP-p-L-37" value="" style="endArrow=classic;html=1;rounded=0;fontFamily=Comic Sans MS;fontSize=11;strokeColor=#030000;exitX=0.3;exitY=1.012;exitDx=0;exitDy=0;exitPerimeter=0;entryX=0.5;entryY=0;entryDx=0;entryDy=0;" parent="1" source="uIpgAM6Qf2mmL0ZP-p-L-35" target="uIpgAM6Qf2mmL0ZP-p-L-38" edge="1">
          <mxGeometry width="50" height="50" relative="1" as="geometry">
            <mxPoint x="400" y="490" as="sourcePoint" />
            <mxPoint x="240" y="470" as="targetPoint" />
          </mxGeometry>
        </mxCell>
        <mxCell id="uIpgAM6Qf2mmL0ZP-p-L-38" value="&lt;font style=&quot;font-size: 17px;&quot;&gt;Cancelled&lt;/font&gt;" style="rounded=1;whiteSpace=wrap;html=1;shadow=0;sketch=0;fontFamily=Comic Sans MS;fontSize=11;strokeColor=#080000;fillColor=none;" parent="1" vertex="1">
          <mxGeometry x="180" y="480" width="120" height="30" as="geometry" />
        </mxCell>
        <mxCell id="uIpgAM6Qf2mmL0ZP-p-L-39" value="&lt;font style=&quot;font-size: 14px;&quot;&gt;cancelation&lt;/font&gt;" style="text;html=1;strokeColor=none;fillColor=none;align=center;verticalAlign=middle;whiteSpace=wrap;rounded=0;shadow=0;sketch=0;fontFamily=Comic Sans MS;fontSize=17;" parent="1" vertex="1">
          <mxGeometry x="170" y="450" width="60" height="10" as="geometry" />
        </mxCell>
        <mxCell id="uIpgAM6Qf2mmL0ZP-p-L-40" value="" style="ellipse;html=1;shape=endState;fillColor=#000000;strokeColor=#ff0000;rounded=1;shadow=0;sketch=0;fontFamily=Comic Sans MS;fontSize=14;" parent="1" vertex="1">
          <mxGeometry x="384" y="585" width="30" height="30" as="geometry" />
        </mxCell>
        <mxCell id="uIpgAM6Qf2mmL0ZP-p-L-42" value="" style="endArrow=classic;html=1;rounded=0;fontFamily=Comic Sans MS;fontSize=14;strokeColor=#030000;exitX=0.5;exitY=1;exitDx=0;exitDy=0;entryX=0;entryY=0;entryDx=0;entryDy=0;" parent="1" source="uIpgAM6Qf2mmL0ZP-p-L-38" target="uIpgAM6Qf2mmL0ZP-p-L-40" edge="1">
          <mxGeometry width="50" height="50" relative="1" as="geometry">
            <mxPoint x="400" y="320" as="sourcePoint" />
            <mxPoint x="450" y="270" as="targetPoint" />
          </mxGeometry>
        </mxCell>
        <mxCell id="uIpgAM6Qf2mmL0ZP-p-L-43" value="" style="endArrow=classic;html=1;rounded=0;fontFamily=Comic Sans MS;fontSize=14;strokeColor=#030000;exitX=0.5;exitY=1;exitDx=0;exitDy=0;entryX=1;entryY=0;entryDx=0;entryDy=0;" parent="1" source="uIpgAM6Qf2mmL0ZP-p-L-34" target="uIpgAM6Qf2mmL0ZP-p-L-40" edge="1">
          <mxGeometry width="50" height="50" relative="1" as="geometry">
            <mxPoint x="400" y="660" as="sourcePoint" />
            <mxPoint x="450" y="610" as="targetPoint" />
          </mxGeometry>
        </mxCell>
        <mxCell id="uIpgAM6Qf2mmL0ZP-p-L-44" value="Delivered" style="text;html=1;strokeColor=none;fillColor=none;align=center;verticalAlign=middle;whiteSpace=wrap;rounded=0;shadow=0;sketch=0;fontFamily=Comic Sans MS;fontSize=14;" parent="1" vertex="1">
          <mxGeometry x="587" y="390" width="60" height="30" as="geometry" />
        </mxCell>
        <mxCell id="lG0hJHwSWaK858UnXxvA-1" value="" style="ellipse;whiteSpace=wrap;html=1;aspect=fixed;" vertex="1" parent="1">
          <mxGeometry x="370" y="1010" width="80" height="80" as="geometry" />
        </mxCell>
      </root>
    </mxGraphModel>
  </diagram>
</mxfile>
